<svg width="2559" height="1440" xmlns="http://www.w3.org/2000/svg" xmlns:xlink="http://www.w3.org/1999/xlink" overflow="hidden"><defs><clipPath id="clip0"><rect x="0" y="0" width="2559" height="1440"/></clipPath></defs><g clip-path="url(#clip0)"><rect x="0" y="0" width="2559" height="1440.19" fill="#FFFFFF"/><path d="M160 339.437C160 334.801 163.758 331.043 168.393 331.043L1630.61 331.043C1635.24 331.043 1639 334.801 1639 339.437L1639 696.698C1639 701.334 1635.24 705.092 1630.61 705.092L168.393 705.092C163.758 705.092 160 701.334 160 696.698Z" fill="#E3E3E3" fill-rule="evenodd"/><path d="M160 751.04C160 746.101 164.004 742.097 168.942 742.097L2390.06 742.097C2395 742.097 2399 746.101 2399 751.04L2399 1351.23C2399 1356.17 2395 1360.18 2390.06 1360.18L168.942 1360.18C164.004 1360.18 160 1356.17 160 1351.23Z" fill="#E3E3E3" fill-rule="evenodd"/><path d="M1679 339.221C1679 334.704 1682.66 331.043 1687.18 331.043L2390.82 331.043C2395.34 331.043 2399 334.704 2399 339.221L2399 695.914C2399 700.431 2395.34 704.092 2390.82 704.092L1687.18 704.092C1682.66 704.092 1679 700.431 1679 695.914Z" fill="#E3E3E3" fill-rule="evenodd"/><path d="M199 187.024C199 149.464 229.445 119.016 267 119.016 304.555 119.016 335 149.464 335 187.024 335 224.585 304.555 255.033 267 255.033 229.445 255.033 199 224.585 199 187.024Z" fill="#229DCE" fill-rule="evenodd"/><path d="M1719 187.024C1719 149.464 1749.44 119.016 1787 119.016 1824.56 119.016 1855 149.464 1855 187.024 1855 224.585 1824.56 255.033 1787 255.033 1749.44 255.033 1719 224.585 1719 187.024Z" fill="#63C08A" fill-rule="evenodd"/><path d="M247.546 207.77 247.546 214.021 252.858 214.021 252.858 207.77 247.546 207.77ZM262.737 200.213 262.737 214.021 268.049 214.021 268.049 200.213 262.737 200.213ZM296.661 187.431C295.729 189.017 294.424 190.23 292.933 191.163L297.22 195.455C298.245 196.481 299.923 196.481 300.948 195.455 301.973 194.428 301.973 192.749 300.948 191.723L296.661 187.431ZM275.319 183.979 271.591 188.271C271.218 188.644 270.659 188.831 270.286 188.644L263.017 185.565 255.841 192.656C255.468 193.029 254.909 193.122 254.536 192.842L249.503 190.137 239.997 199.56 239.997 214.021 245.309 214.021 245.309 206.65C245.309 205.997 245.868 205.531 246.521 205.531L254.07 205.531C254.629 205.531 255.188 205.997 255.188 206.65L255.188 214.021 260.5 214.021 260.5 199C260.5 198.44 260.966 197.973 261.619 197.973L269.168 197.973C269.82 197.973 270.286 198.44 270.286 199L270.286 214.021 275.598 214.021 275.598 192.096C275.598 191.536 276.157 191.07 276.717 191.07 277.369 191.07 277.928 191.536 277.928 192.096L277.928 214.021 283.147 214.021 283.147 192.469C279.326 191.163 276.251 187.991 275.319 183.979ZM246.229 176.285 263.528 176.285C264.086 176.285 264.645 176.778 264.645 177.467 264.645 178.058 264.086 178.649 263.528 178.649L246.229 178.649C245.578 178.649 245.02 178.058 245.02 177.467 245.02 176.778 245.578 176.285 246.229 176.285ZM286.819 175.054C287.485 175.054 288.056 175.625 288.056 176.195 288.056 176.861 287.485 177.431 286.819 177.431 284.535 177.431 282.631 179.238 282.631 181.615 282.631 182.281 282.155 182.756 281.489 182.756 280.823 182.756 280.347 182.281 280.347 181.615 280.347 178.002 283.297 175.054 286.819 175.054ZM286.689 171.757C281.563 171.757 277.276 176.049 277.276 181.274 277.276 186.498 281.563 190.79 286.689 190.79 292.001 190.79 296.195 186.498 296.195 181.274 296.195 176.049 292.001 171.757 286.689 171.757ZM261.034 168.898 271.316 168.898C271.976 168.898 272.448 169.489 272.448 170.08 272.448 170.769 271.976 171.262 271.316 171.262L261.034 171.262C260.374 171.262 259.808 170.769 259.808 170.08 259.808 169.489 260.374 168.898 261.034 168.898ZM246.232 168.898 254.806 168.898C255.552 168.898 256.018 169.489 256.018 170.08 256.018 170.769 255.552 171.262 254.806 171.262L246.232 171.262C245.579 171.262 245.02 170.769 245.02 170.08 245.02 169.489 245.579 168.898 246.232 168.898ZM246.614 152.352C248.944 154.125 250.528 156.737 250.901 159.816L301.6 159.816C301.041 155.617 297.406 152.352 293.026 152.352L246.614 152.352ZM239.997 152.352C235.244 152.352 231.33 156.27 231.33 161.028L231.33 222.79 291.908 222.79 291.908 193.402 290.789 192.282C289.485 192.749 288.18 193.029 286.689 193.029 286.316 193.029 285.943 193.029 285.477 192.936L285.477 215.233C285.477 215.887 285.011 216.353 284.266 216.353L238.879 216.353C238.32 216.353 237.76 215.887 237.76 215.233L237.76 169.705C237.76 169.145 238.32 168.585 238.879 168.585 239.531 168.585 239.997 169.145 239.997 169.705L239.997 196.387 248.478 187.991C248.944 187.618 249.41 187.524 249.876 187.711L254.815 190.51 261.898 183.326C262.178 183.046 262.644 182.953 263.11 183.14L270.379 186.218 275.039 180.807C275.319 174.556 280.444 169.518 286.689 169.518 288.553 169.518 290.323 169.985 291.908 170.731L291.908 162.148 249.783 162.148C249.13 162.148 248.665 161.588 248.665 161.028 248.665 156.27 244.75 152.352 239.997 152.352ZM239.997 150.02 293.026 150.02C299.084 150.02 303.93 154.964 303.93 161.028 303.93 161.588 303.464 162.148 302.812 162.148L294.145 162.148 294.145 172.224C296.754 174.37 298.525 177.635 298.525 181.274 298.525 182.673 298.245 184.073 297.686 185.285L302.532 190.137C304.489 192.003 304.489 195.175 302.532 197.041 301.6 198.067 300.295 198.533 299.084 198.533 297.779 198.533 296.474 198.067 295.542 197.041L294.145 195.641 294.145 224.003C294.145 224.563 293.678 225.029 293.026 225.029L230.211 225.029C229.559 225.029 229 224.563 229 224.003L229 161.028C229 154.964 233.939 150.02 239.997 150.02Z" fill="#FFFFFF" fill-rule="evenodd"/><path d="M1765.92 211.4 1785.73 211.4C1786.39 211.4 1786.86 211.968 1786.86 212.631 1786.86 213.294 1786.39 213.768 1785.73 213.768L1765.92 213.768C1765.27 213.768 1764.8 213.294 1764.8 212.631 1764.8 211.968 1765.27 211.4 1765.92 211.4ZM1776.57 202.782 1779.6 202.782C1780.16 202.782 1780.71 203.35 1780.71 204.013 1780.71 204.676 1780.16 205.149 1779.6 205.149L1776.57 205.149C1775.93 205.149 1775.47 204.676 1775.47 204.013 1775.47 203.35 1775.93 202.782 1776.57 202.782ZM1765.93 202.782 1770.55 202.782C1771.21 202.782 1771.68 203.35 1771.68 204.013 1771.68 204.676 1771.21 205.149 1770.55 205.149L1765.93 205.149C1765.27 205.149 1764.8 204.676 1764.8 204.013 1764.8 203.35 1765.27 202.782 1765.93 202.782ZM1798.98 198 1788.53 205.463C1792.73 210.781 1799.26 214.233 1806.63 214.233 1812.13 214.233 1817.26 212.274 1821.18 209.008L1812.6 199.399C1810.92 200.612 1808.87 201.358 1806.63 201.358 1803.64 201.358 1800.84 200.052 1798.98 198ZM1765.91 194.163 1777.13 194.163C1777.78 194.163 1778.25 194.656 1778.25 195.345 1778.25 196.035 1777.78 196.527 1777.13 196.527L1765.91 196.527C1765.26 196.527 1764.8 196.035 1764.8 195.345 1764.8 194.656 1765.26 194.163 1765.91 194.163ZM1765.91 185.955 1777.13 185.955C1777.78 185.955 1778.25 186.448 1778.25 187.137 1778.25 187.827 1777.78 188.319 1777.13 188.319L1765.91 188.319C1765.26 188.319 1764.8 187.827 1764.8 187.137 1764.8 186.448 1765.26 185.955 1765.91 185.955ZM1806.63 183.166C1802.24 183.166 1798.6 186.711 1798.6 191.096 1798.6 195.481 1802.24 199.119 1806.63 199.119 1811.01 199.119 1814.56 195.481 1814.56 191.096 1814.56 186.711 1811.01 183.166 1806.63 183.166ZM1765.91 177.337 1779.59 177.337C1780.15 177.337 1780.71 177.83 1780.71 178.519 1780.71 179.208 1780.15 179.701 1779.59 179.701L1765.91 179.701C1765.26 179.701 1764.8 179.208 1764.8 178.519 1764.8 177.83 1765.26 177.337 1765.91 177.337ZM1824.07 176.168 1814.74 185.032C1816.05 186.711 1816.79 188.857 1816.79 191.096 1816.79 193.708 1815.86 196.04 1814.28 197.906L1822.95 207.516C1827.15 203.317 1829.67 197.44 1829.67 191.096 1829.67 185.405 1827.62 180.087 1824.07 176.168ZM1777.81 169.129 1785.34 169.129C1785.99 169.129 1786.45 169.622 1786.45 170.311 1786.45 171.001 1785.99 171.493 1785.34 171.493L1777.81 171.493C1777.25 171.493 1776.7 171.001 1776.7 170.311 1776.7 169.622 1777.25 169.129 1777.81 169.129ZM1765.89 169.129 1771.82 169.129C1772.46 169.129 1772.91 169.622 1772.91 170.311 1772.91 171.001 1772.46 171.493 1771.82 171.493L1765.89 171.493C1765.25 171.493 1764.8 171.001 1764.8 170.311 1764.8 169.622 1765.25 169.129 1765.89 169.129ZM1807.75 168.052 1807.75 180.927C1809.8 181.206 1811.66 182.046 1813.25 183.259L1822.58 174.396C1818.66 170.664 1813.53 168.332 1807.75 168.052ZM1805.51 168.052C1793.29 168.705 1783.49 178.781 1783.49 191.096 1783.49 195.761 1784.89 200.052 1787.22 203.597L1797.67 196.134C1796.83 194.641 1796.37 192.962 1796.37 191.096 1796.37 185.871 1800.38 181.486 1805.51 180.927L1805.51 168.052ZM1772.86 151.352 1772.86 154.71C1772.86 156.576 1774.44 158.162 1776.31 158.162L1797.58 158.162C1799.44 158.162 1800.94 156.576 1800.94 154.71L1800.94 151.352 1772.86 151.352ZM1762.69 151.352C1760.73 151.352 1759.24 152.844 1759.24 154.71L1759.24 218.431C1759.24 220.297 1760.73 221.79 1762.69 221.79L1811.2 221.79C1813.06 221.79 1814.56 220.297 1814.56 218.431L1814.56 215.166C1812.04 216.099 1809.33 216.472 1806.63 216.472 1792.63 216.472 1781.25 205.09 1781.25 191.096 1781.25 177.101 1792.63 165.813 1806.63 165.813 1809.33 165.813 1812.04 166.186 1814.56 167.026L1814.56 154.71C1814.56 152.844 1813.06 151.352 1811.2 151.352L1803.18 151.352 1803.18 154.71C1803.18 157.882 1800.66 160.401 1797.58 160.401L1776.31 160.401C1773.14 160.401 1770.62 157.882 1770.62 154.71L1770.62 151.352 1762.69 151.352ZM1762.69 149.019 1811.2 149.019C1814.28 149.019 1816.79 151.632 1816.79 154.71L1816.79 167.865C1825.75 171.877 1832 180.74 1832 191.096 1832 201.452 1825.75 210.408 1816.79 214.326L1816.79 218.431C1816.79 221.51 1814.28 224.029 1811.2 224.029L1762.69 224.029C1759.52 224.029 1757 221.51 1757 218.431L1757 154.71C1757 151.632 1759.52 149.019 1762.69 149.019Z" fill="#FFFFFF" fill-rule="evenodd"/><path d="M199 835.609C199 806.61 222.505 783.102 251.5 783.102 280.495 783.102 304 806.61 304 835.609 304 864.608 280.495 888.116 251.5 888.116 222.505 888.116 199 864.608 199 835.609Z" fill="#CAC9D0" fill-rule="evenodd"/><path d="M239.79 846.904C240.098 846.584 240.531 846.584 240.84 846.904L242.322 848.442 243.805 846.904C244.114 846.584 244.546 846.584 244.855 846.904 245.164 847.225 245.164 847.737 244.855 848.057L243.372 849.531 244.855 851.068C245.164 851.388 245.164 851.9 244.855 852.156 244.731 852.349 244.546 852.413 244.299 852.413 244.114 852.413 243.928 852.349 243.805 852.156L242.322 850.683 240.84 852.156C240.654 852.349 240.469 852.413 240.284 852.413 240.16 852.413 239.913 852.349 239.79 852.156 239.481 851.9 239.481 851.388 239.79 851.068L241.272 849.531 239.79 848.057C239.481 847.737 239.481 847.225 239.79 846.904ZM237.713 844.735C237.59 844.735 237.466 844.862 237.466 845.052L237.466 854.29C237.466 854.416 237.59 854.543 237.713 854.543L246.719 854.543C246.843 854.543 246.966 854.416 246.966 854.29L246.966 845.052C246.966 844.862 246.843 844.735 246.719 844.735L237.713 844.735ZM270.209 843.373C269.719 843.373 269.228 843.563 268.86 843.944 268.554 844.325 268.309 844.769 268.309 845.276 268.309 845.847 268.554 846.291 268.86 846.672 269.596 847.433 270.822 847.433 271.497 846.672 272.233 845.911 272.233 844.705 271.497 843.944 271.19 843.563 270.639 843.373 270.209 843.373ZM237.713 843.217 246.719 843.217C247.645 843.217 248.446 843.976 248.446 845.052L248.446 854.29C248.446 855.302 247.645 856.061 246.719 856.061L237.713 856.061C236.726 856.061 235.924 855.302 235.924 854.29L235.924 845.052C235.924 843.976 236.726 843.217 237.713 843.217ZM270.179 841.866C271.052 841.866 271.926 842.199 272.539 842.865 273.888 844.198 273.888 846.418 272.539 847.751 271.926 848.448 271.068 848.766 270.209 848.766 269.351 848.766 268.431 848.448 267.818 847.751 267.144 847.116 266.837 846.228 266.837 845.276 266.837 844.388 267.144 843.5 267.818 842.865 268.431 842.199 269.305 841.866 270.179 841.866ZM261.485 834.346C260.99 834.346 260.495 834.538 260.124 834.858 259.753 835.306 259.567 835.754 259.567 836.266 259.567 836.778 259.753 837.29 260.124 837.674 260.866 838.442 262.103 838.442 262.784 837.674 263.526 836.906 263.526 835.69 262.784 834.858 262.412 834.538 261.918 834.346 261.485 834.346ZM272.575 833.087C272.825 832.834 273.325 832.834 273.637 833.087 273.887 833.403 273.887 833.909 273.637 834.162L259.457 848.576C259.27 848.703 259.082 848.766 258.895 848.766 258.708 848.766 258.52 848.703 258.333 848.576 258.083 848.26 258.083 847.754 258.333 847.501L272.575 833.087ZM261.454 832.874C262.335 832.874 263.216 833.194 263.835 833.834 265.134 835.178 265.134 837.418 263.835 838.762 263.216 839.466 262.351 839.786 261.485 839.786 260.557 839.786 259.691 839.466 259.073 838.762 258.392 838.058 258.083 837.226 258.083 836.266 258.083 835.37 258.392 834.474 259.073 833.834 259.691 833.194 260.572 832.874 261.454 832.874ZM242.186 828.625C242.615 828.625 242.922 829.007 242.922 829.451L242.922 831.23 244.64 831.23C245.07 831.23 245.438 831.611 245.438 831.993 245.438 832.437 245.07 832.755 244.64 832.755L242.922 832.755 242.922 834.534C242.922 834.979 242.615 835.296 242.186 835.296 241.756 835.296 241.388 834.979 241.388 834.534L241.388 832.755 239.67 832.755C239.302 832.755 238.933 832.437 238.933 831.993 238.933 831.611 239.302 831.23 239.67 831.23L241.388 831.23 241.388 829.451C241.388 829.007 241.756 828.625 242.186 828.625ZM266.137 827.192C258.736 827.192 252.766 833.29 252.766 840.786 252.766 848.345 258.736 854.443 266.137 854.443 273.475 854.443 279.508 848.345 279.508 840.786 279.508 833.29 273.475 827.192 266.137 827.192ZM237.713 827.065C237.59 827.065 237.466 827.192 237.466 827.319L237.466 836.603C237.466 836.666 237.59 836.857 237.713 836.857L246.719 836.857C246.843 836.857 246.966 836.666 246.966 836.603L246.966 827.319C246.966 827.192 246.843 827.065 246.719 827.065L237.713 827.065ZM237.713 825.539 246.719 825.539C247.645 825.539 248.446 826.365 248.446 827.319L248.446 836.603C248.446 837.556 247.645 838.383 246.719 838.383L237.713 838.383C236.726 838.383 235.924 837.556 235.924 836.603L235.924 827.319C235.924 826.365 236.726 825.539 237.713 825.539ZM234.794 821.984C233.55 821.984 232.493 823 232.493 824.334L232.493 857.237C232.493 858.508 233.55 859.588 234.794 859.588L267.132 859.588C268.376 859.588 269.371 858.508 269.371 857.237L269.371 855.649C268.314 855.903 267.256 856.031 266.137 856.031 257.866 856.031 251.212 849.17 251.212 840.786 251.212 832.464 257.866 825.668 266.137 825.668 267.256 825.668 268.314 825.795 269.371 826.049L269.371 824.334C269.371 823 268.376 821.984 267.132 821.984L234.794 821.984ZM264.354 815.468C264.606 815.156 265.111 815.156 265.427 815.468 265.553 815.593 265.68 815.78 265.68 816.029 265.68 816.216 265.553 816.403 265.427 816.528 265.301 816.653 265.111 816.778 264.859 816.778 264.669 816.778 264.48 816.653 264.354 816.528 264.165 816.403 264.101 816.216 264.101 816.029 264.101 815.78 264.165 815.593 264.354 815.468ZM254.176 815.468C254.505 815.156 255.03 815.156 255.358 815.468 255.489 815.593 255.555 815.78 255.555 816.029 255.555 816.216 255.489 816.403 255.358 816.528 255.227 816.653 254.964 816.778 254.767 816.778 254.57 816.778 254.373 816.653 254.176 816.528 254.045 816.403 253.979 816.216 253.979 816.029 253.979 815.78 254.045 815.593 254.176 815.468ZM259.965 815.437C260.425 815.437 260.753 815.774 260.753 816.245 260.753 816.649 260.425 817.053 259.965 817.053 259.571 817.053 259.177 816.649 259.177 816.245 259.177 815.774 259.571 815.437 259.965 815.437ZM234.794 811.63C233.55 811.63 232.493 812.71 232.493 813.98L232.493 818.109C232.493 819.379 233.55 820.459 234.794 820.459L267.132 820.459C268.376 820.459 269.371 819.379 269.371 818.109L269.371 813.98C269.371 812.71 268.376 811.63 267.132 811.63L234.794 811.63ZM234.794 810.106 267.132 810.106C269.246 810.106 270.926 811.821 270.926 813.98L270.926 818.109C270.926 819.379 270.304 820.523 269.371 821.222 270.304 821.92 270.926 823.064 270.926 824.334L270.926 826.494C276.771 828.526 281 834.116 281 840.786 281 847.519 276.771 853.172 270.926 855.205L270.926 857.237C270.926 859.397 269.246 861.112 267.132 861.112L234.794 861.112C232.741 861.112 231 859.397 231 857.237L231 824.334C231 823.064 231.622 821.92 232.555 821.222 231.622 820.523 231 819.379 231 818.109L231 813.98C231 811.821 232.741 810.106 234.794 810.106Z" fill="#FFFFFF" fill-rule="evenodd"/></g></svg>